<mxfile host="app.diagrams.net" modified="2024-05-22T03:05:04.753Z" agent="Mozilla/5.0 (X11; Linux x86_64) AppleWebKit/537.36 (KHTML, like Gecko) Chrome/125.0.0.0 Safari/537.36" version="24.4.4" etag="u-bWtKSlkdkjEVHILzAN" type="github">
  <diagram name="PÃ¡gina-1" id="PX-4wnFK4skstsvN9NlV">
    <mxGraphModel>
      <root>
        <mxCell id="0" />
        <mxCell id="1" parent="0" />
      </root>
    </mxGraphModel>
  </diagram>
</mxfile>
